<svg xmlns="http://www.w3.org/2000/svg" xmlns:xlink="http://www.w3.org/1999/xlink" width="700" zoomAndPan="magnify" viewBox="0 0 525 225" height="300" preserveAspectRatio="xMidYMid meet" version="1.0"><defs><clipPath id="60de8e5e9f"><path d="M 319 107 L 333 107 L 333 121 L 319 121 Z M 319 107 " clip-rule="nonzero"/></clipPath><clipPath id="23c9b89a5a"><path d="M 318.898438 108.917969 L 331.320312 106.90625 L 333.332031 119.332031 L 320.90625 121.339844 Z M 318.898438 108.917969 " clip-rule="nonzero"/></clipPath><clipPath id="08acbeb79c"><path d="M 325.109375 107.914062 C 321.679688 108.46875 319.347656 111.699219 319.902344 115.128906 C 320.457031 118.558594 323.6875 120.890625 327.117188 120.335938 C 330.550781 119.78125 332.882812 116.550781 332.328125 113.121094 C 331.773438 109.6875 328.539062 107.359375 325.109375 107.914062 Z M 325.109375 107.914062 " clip-rule="nonzero"/></clipPath><clipPath id="f224fce85a"><path d="M 369 85.140625 L 444 85.140625 L 444 128.640625 L 369 128.640625 Z M 369 85.140625 " clip-rule="nonzero"/></clipPath><clipPath id="44bf8dc3bb"><path d="M 354.398438 98 L 378 98 L 378 103 L 354.398438 103 Z M 354.398438 98 " clip-rule="nonzero"/></clipPath><clipPath id="35409407e1"><path d="M 354.398438 111 L 378 111 L 378 116 L 354.398438 116 Z M 354.398438 111 " clip-rule="nonzero"/></clipPath><clipPath id="85882c0841"><path d="M 310.785156 95.644531 L 380.453125 95.644531 L 380.453125 121.34375 L 310.785156 121.34375 Z M 310.785156 95.644531 " clip-rule="nonzero"/></clipPath><clipPath id="e9c5eb6a7a"><path d="M 321.285156 95.644531 L 369.953125 95.644531 C 375.75 95.644531 380.453125 100.34375 380.453125 106.144531 L 380.453125 110.84375 C 380.453125 116.640625 375.75 121.34375 369.953125 121.34375 L 321.285156 121.34375 C 315.484375 121.34375 310.785156 116.640625 310.785156 110.84375 L 310.785156 106.144531 C 310.785156 100.34375 315.484375 95.644531 321.285156 95.644531 Z M 321.285156 95.644531 " clip-rule="nonzero"/></clipPath><clipPath id="e3b03f9184"><path d="M 148.328125 102.6875 L 371.863281 102.6875 L 371.863281 106.910156 L 148.328125 106.910156 Z M 148.328125 102.6875 " clip-rule="nonzero"/></clipPath><clipPath id="7255a3401b"><path d="M 150.4375 102.6875 L 369.753906 102.6875 C 370.3125 102.6875 370.847656 102.910156 371.246094 103.304688 C 371.640625 103.699219 371.863281 104.238281 371.863281 104.796875 C 371.863281 105.355469 371.640625 105.894531 371.246094 106.289062 C 370.847656 106.6875 370.3125 106.910156 369.753906 106.910156 L 150.4375 106.910156 C 149.878906 106.910156 149.339844 106.6875 148.945312 106.289062 C 148.546875 105.894531 148.328125 105.355469 148.328125 104.796875 C 148.328125 104.238281 148.546875 103.699219 148.945312 103.304688 C 149.339844 102.910156 149.878906 102.6875 150.4375 102.6875 Z M 150.4375 102.6875 " clip-rule="nonzero"/></clipPath><clipPath id="d447654a2e"><path d="M 116.28125 93.53125 L 367.992188 93.53125 L 367.992188 97.753906 L 116.28125 97.753906 Z M 116.28125 93.53125 " clip-rule="nonzero"/></clipPath><clipPath id="af34389108"><path d="M 118.390625 93.53125 L 365.878906 93.53125 C 366.4375 93.53125 366.976562 93.753906 367.371094 94.148438 C 367.769531 94.546875 367.992188 95.082031 367.992188 95.644531 C 367.992188 96.203125 367.769531 96.738281 367.371094 97.136719 C 366.976562 97.53125 366.4375 97.753906 365.878906 97.753906 L 118.390625 97.753906 C 117.832031 97.753906 117.292969 97.53125 116.898438 97.136719 C 116.503906 96.738281 116.28125 96.203125 116.28125 95.644531 C 116.28125 95.082031 116.503906 94.546875 116.898438 94.148438 C 117.292969 93.753906 117.832031 93.53125 118.390625 93.53125 Z M 118.390625 93.53125 " clip-rule="nonzero"/></clipPath><clipPath id="d35c048c8d"><path d="M 80.601562 112.015625 L 371.863281 112.015625 L 371.863281 116.238281 L 80.601562 116.238281 Z M 80.601562 112.015625 " clip-rule="nonzero"/></clipPath><clipPath id="c24d341752"><path d="M 82.714844 112.015625 L 369.753906 112.015625 C 370.3125 112.015625 370.847656 112.238281 371.246094 112.632812 C 371.640625 113.027344 371.863281 113.566406 371.863281 114.125 C 371.863281 114.683594 371.640625 115.222656 371.246094 115.617188 C 370.847656 116.015625 370.3125 116.238281 369.753906 116.238281 L 82.714844 116.238281 C 82.152344 116.238281 81.617188 116.015625 81.21875 115.617188 C 80.824219 115.222656 80.601562 114.683594 80.601562 114.125 C 80.601562 113.566406 80.824219 113.027344 81.21875 112.632812 C 81.617188 112.238281 82.152344 112.015625 82.714844 112.015625 Z M 82.714844 112.015625 " clip-rule="nonzero"/></clipPath><clipPath id="01be0150cb"><path d="M 411.050781 100.105469 L 424.65625 100.105469 L 424.65625 113.710938 L 411.050781 113.710938 Z M 411.050781 100.105469 " clip-rule="nonzero"/></clipPath><clipPath id="93909c5793"><path d="M 417.851562 100.105469 C 414.09375 100.105469 411.050781 103.152344 411.050781 106.910156 C 411.050781 110.664062 414.09375 113.710938 417.851562 113.710938 C 421.609375 113.710938 424.65625 110.664062 424.65625 106.910156 C 424.65625 103.152344 421.609375 100.105469 417.851562 100.105469 Z M 417.851562 100.105469 " clip-rule="nonzero"/></clipPath></defs><rect x="-52.5" width="630" fill="#ffffff" y="-22.5" height="270" fill-opacity="1"/><rect x="-52.5" width="630" fill="#ffffff" y="-22.5" height="270" fill-opacity="1"/><g clip-path="url(#60de8e5e9f)"><g clip-path="url(#23c9b89a5a)"><g clip-path="url(#08acbeb79c)"><path fill="#ffffff" d="M 318.898438 108.917969 L 331.320312 106.90625 L 333.332031 119.332031 L 320.90625 121.339844 Z M 318.898438 108.917969 " fill-opacity="1" fill-rule="nonzero"/></g></g></g><g clip-path="url(#f224fce85a)"><path fill="#0066ff" d="M 443.363281 105.109375 C 442.75 103.96875 441.515625 103.449219 440.460938 102.8125 C 427.835938 95.4375 413.304688 91.375 398.675781 91.125 C 396.265625 87.542969 392.050781 85.246094 387.722656 85.234375 C 382.253906 85.230469 376.78125 85.175781 371.3125 85.207031 C 369.636719 85.261719 368.835938 87.664062 370.160156 88.710938 C 373.40625 91.15625 376.734375 93.492188 380 95.910156 C 382.238281 97.640625 383.613281 100.425781 383.605469 103.253906 C 383.621094 105.722656 383.617188 108.191406 383.625 110.660156 C 383.617188 113.425781 382.292969 116.164062 380.089844 117.851562 C 376.820312 120.273438 373.484375 122.605469 370.226562 125.046875 C 368.875 126.148438 369.816406 128.613281 371.5625 128.539062 C 376.945312 128.574219 382.335938 128.566406 387.722656 128.589844 C 392.050781 128.609375 396.292969 126.367188 398.734375 122.796875 C 413.976562 122.535156 429.167969 118.273438 442.179688 110.300781 C 443.871094 109.230469 444.394531 106.800781 443.363281 105.109375 Z M 443.363281 105.109375 " fill-opacity="1" fill-rule="nonzero"/></g><path fill="#0066ff" d="M 374.910156 108.949219 C 375.816406 109.03125 376.726562 108.480469 377.023438 107.617188 C 377.433594 106.585938 376.828125 105.3125 375.765625 104.976562 C 372.433594 104.734375 369.0625 104.917969 365.71875 104.84375 C 364.570312 104.910156 363.15625 104.527344 362.308594 105.542969 C 361.1875 106.699219 362.085938 108.890625 363.703125 108.902344 C 367.4375 108.945312 371.171875 108.925781 374.910156 108.949219 Z M 374.910156 108.949219 " fill-opacity="1" fill-rule="nonzero"/><g clip-path="url(#44bf8dc3bb)"><path fill="#0066ff" d="M 375.609375 98.300781 C 369.472656 98.15625 363.332031 98.257812 357.191406 98.195312 C 356.269531 98.109375 355.285156 98.574219 354.957031 99.480469 C 354.402344 100.695312 355.410156 102.253906 356.75 102.25 C 362.804688 102.289062 368.867188 102.28125 374.925781 102.3125 C 375.832031 102.382812 376.757812 101.84375 377.054688 100.96875 C 377.476562 99.882812 376.757812 98.53125 375.609375 98.300781 Z M 375.609375 98.300781 " fill-opacity="1" fill-rule="nonzero"/></g><g clip-path="url(#35409407e1)"><path fill="#0066ff" d="M 375.609375 111.664062 C 369.472656 111.519531 363.332031 111.621094 357.191406 111.558594 C 356.269531 111.472656 355.285156 111.9375 354.957031 112.84375 C 354.402344 114.058594 355.410156 115.621094 356.75 115.613281 C 362.804688 115.65625 368.867188 115.648438 374.925781 115.675781 C 375.832031 115.746094 376.757812 115.207031 377.054688 114.332031 C 377.476562 113.246094 376.757812 111.894531 375.609375 111.664062 Z M 375.609375 111.664062 " fill-opacity="1" fill-rule="nonzero"/></g><g clip-path="url(#85882c0841)"><g clip-path="url(#e9c5eb6a7a)"><path fill="#ffffff" d="M 310.785156 95.644531 L 380.453125 95.644531 L 380.453125 121.34375 L 310.785156 121.34375 Z M 310.785156 95.644531 " fill-opacity="1" fill-rule="nonzero"/></g></g><g clip-path="url(#e3b03f9184)"><g clip-path="url(#7255a3401b)"><path fill="#0066ff" d="M 148.328125 102.6875 L 371.863281 102.6875 L 371.863281 106.910156 L 148.328125 106.910156 Z M 148.328125 102.6875 " fill-opacity="1" fill-rule="nonzero"/></g></g><g clip-path="url(#d447654a2e)"><g clip-path="url(#af34389108)"><path fill="#0066ff" d="M 116.28125 93.53125 L 367.992188 93.53125 L 367.992188 97.753906 L 116.28125 97.753906 Z M 116.28125 93.53125 " fill-opacity="1" fill-rule="nonzero"/></g></g><g clip-path="url(#d35c048c8d)"><g clip-path="url(#c24d341752)"><path fill="#0066ff" d="M 80.601562 112.015625 L 371.863281 112.015625 L 371.863281 116.238281 L 80.601562 116.238281 Z M 80.601562 112.015625 " fill-opacity="1" fill-rule="nonzero"/></g></g><g clip-path="url(#01be0150cb)"><g clip-path="url(#93909c5793)"><path fill="#ffffff" d="M 411.050781 100.105469 L 424.65625 100.105469 L 424.65625 113.710938 L 411.050781 113.710938 Z M 411.050781 100.105469 " fill-opacity="1" fill-rule="nonzero"/></g></g></svg>